<?xml version="1.0" encoding="UTF-8"?>
<svg id="Layer_1" xmlns="http://www.w3.org/2000/svg" version="1.1" viewBox="0 0 800 600">
  <!-- Generator: Adobe Illustrator 29.2.1, SVG Export Plug-In . SVG Version: 2.1.0 Build 116)  -->
  <defs>
    <style>
      .st0 {
        font-size: 14px;
      }

      .st0, .st1, .st2 {
        fill: #fff;
        font-family: ArialMT, Arial;
        isolation: isolate;
      }

      .st3 {
        fill: #ff6b6b;
      }

      .st4 {
        fill: #4a90e2;
      }

      .st5 {
        fill: none;
        stroke: #666;
        stroke-width: 2px;
      }

      .st6 {
        fill: #6c5b7b;
      }

      .st1 {
        font-size: 16px;
      }

      .st2 {
        font-size: 12px;
      }

      .st7 {
        fill: #ffd93d;
      }

      .st8 {
        fill: #50c878;
      }
    </style>
  </defs>
  <circle class="st4" cx="400" cy="300" r="60"/>
  <text class="st1" transform="translate(349.8 305)"><tspan x="0" y="0">Digital Identity</tspan></text>
  <circle class="st8" cx="650" cy="200" r="50"/>
  <text class="st0" transform="translate(620 205)"><tspan x="0" y="0">Research</tspan></text>
  <line class="st5" x1="450" y1="280" x2="610" y2="210"/>
  <circle class="st8" cx="700" cy="100" r="40"/>
  <text class="st2" transform="translate(678.3 105)"><tspan x="0" y="0">Lambda</tspan></text>
  <line class="st5" x1="660" y1="160" x2="690" y2="130"/>
  <circle class="st8" cx="750" cy="200" r="40"/>
  <text class="st2" transform="translate(740.3 205)"><tspan x="0" y="0">Tau</tspan></text>
  <line class="st5" x1="690" y1="200" x2="710" y2="200"/>
  <circle class="st3" cx="200" cy="150" r="50"/>
  <text class="st0" transform="translate(161.9 155)"><tspan x="0" y="0">Governance</tspan></text>
  <line class="st5" x1="350" y1="270" x2="240" y2="180"/>
  <circle class="st3" cx="100" cy="100" r="40"/>
  <text class="st2" transform="translate(80.3 105)"><tspan x="0" y="0">BinGov</tspan></text>
  <line class="st5" x1="170" y1="130" x2="130" y2="110"/>
  <circle class="st7" cx="200" cy="450" r="50"/>
  <text class="st0" transform="translate(162.4 455)"><tspan x="0" y="0">Digital Tools</tspan></text>
  <line class="st5" x1="350" y1="330" x2="240" y2="430"/>
  <circle class="st7" cx="100" cy="500" r="40"/>
  <text class="st2" transform="translate(76.9 505)"><tspan x="0" y="0">TinyURL</tspan></text>
  <line class="st5" x1="170" y1="470" x2="130" y2="490"/>
  <circle class="st7" cx="150" cy="550" r="40"/>
  <text class="st2" transform="translate(128.3 555)"><tspan x="0" y="0">DotCast</tspan></text>
  <line class="st5" x1="190" y1="490" x2="160" y2="520"/>
  <circle class="st6" cx="600" cy="400" r="50"/>
  <text class="st0" transform="translate(577.3 405)"><tspan x="0" y="0">UN/Int&apos;l</tspan></text>
  <line class="st5" x1="450" y1="330" x2="560" y2="380"/>
  <circle class="st6" cx="700" cy="450" r="40"/>
  <text class="st2" transform="translate(678.7 455)"><tspan x="0" y="0">UN-DOI</tspan></text>
  <line class="st5" x1="640" y1="420" x2="670" y2="440"/>
</svg>